<?xml version="1.0" encoding="UTF-8" standalone="yes"?>
<svg width="170mm" height="173mm" viewBox="-6 -167 170 173" xmlns="http://www.w3.org/2000/svg" version="1.1">
  <title>OpenSCAD Model</title>
  <path d="
M 83.9283,-132.1 L 83.9283,-137.705 L 105.872,-137.705 L 105.872,-132.1 L 105.967,-132.005 L 128.1,-132.005
 L 128.195,-132.1 L 128.195,-149.2 L 128.1,-149.295 L 122.495,-149.295 L 122.495,-166.3 L 122.4,-166.395
 L 105.967,-166.395 L 105.872,-166.3 L 105.872,-160.695 L 83.9283,-160.695 L 83.9283,-166.3 L 83.8333,-166.395
 L 67.4,-166.395 L 67.305,-166.3 L 67.305,-149.295 L 61.7,-149.295 L 61.605,-149.2 L 61.605,-132.1
 L 61.7,-132.005 L 83.8333,-132.005 z
M 16.5283,-132.1 L 16.5283,-137.705 L 38.4717,-137.705 L 38.4717,-132.1 L 38.5667,-132.005 L 60.7,-132.005
 L 60.795,-132.1 L 60.795,-149.2 L 60.7,-149.295 L 55.095,-149.295 L 55.095,-166.3 L 55,-166.395
 L 38.5667,-166.395 L 38.4717,-166.3 L 38.4717,-160.695 L 16.5283,-160.695 L 16.5283,-166.3 L 16.4333,-166.395
 L 0,-166.395 L -0.0950012,-166.3 L -0.0950012,-149.295 L -5.7,-149.295 L -5.795,-149.2 L -5.795,-132.1
 L -5.7,-132.005 L 16.4333,-132.005 z
M 21.575,-140.895 L 21.575,-151.305 L 33.425,-151.305 L 33.425,-140.895 z
M 38.6617,-61.7 L 38.6617,-67.305 L 55,-67.305 L 55.095,-67.4 L 55.095,-83.7383 L 60.7,-83.7383
 L 60.795,-83.8333 L 60.795,-105.967 L 60.7,-106.062 L 55.095,-106.062 L 55.095,-122.4 L 55,-122.495
 L 38.6617,-122.495 L 38.6617,-128.1 L 38.5667,-128.195 L 16.4333,-128.195 L 16.3383,-128.1 L 16.3383,-122.495
 L 0,-122.495 L -0.0950012,-122.4 L -0.0950012,-106.062 L -5.7,-106.062 L -5.795,-105.967 L -5.795,-83.8333
 L -5.7,-83.7383 L -0.0950012,-83.7383 L -0.0950012,-67.4 L 0,-67.305 L 16.3383,-67.305 L 16.3383,-61.7
 L 16.4333,-61.605 L 38.5667,-61.605 z
M 146.295,-61.7 L 146.295,-67.305 L 163.3,-67.305 L 163.395,-67.4 L 163.395,-83.8333 L 163.3,-83.9283
 L 157.695,-83.9283 L 157.695,-105.872 L 163.3,-105.872 L 163.395,-105.967 L 163.395,-122.4 L 163.3,-122.495
 L 146.295,-122.495 L 146.295,-128.1 L 146.2,-128.195 L 129.1,-128.195 L 129.005,-128.1 L 129.005,-105.967
 L 129.1,-105.872 L 134.705,-105.872 L 134.705,-83.9283 L 129.1,-83.9283 L 129.005,-83.8333 L 129.005,-61.7
 L 129.1,-61.605 L 146.2,-61.605 z
M 106.062,-61.7 L 106.062,-67.305 L 122.4,-67.305 L 122.495,-67.4 L 122.495,-83.7383 L 128.1,-83.7383
 L 128.195,-83.8333 L 128.195,-105.967 L 128.1,-106.062 L 122.495,-106.062 L 122.495,-122.4 L 122.4,-122.495
 L 106.062,-122.495 L 106.062,-128.1 L 105.967,-128.195 L 83.8333,-128.195 L 83.7383,-128.1 L 83.7383,-122.495
 L 67.4,-122.495 L 67.305,-122.4 L 67.305,-106.062 L 61.7,-106.062 L 61.605,-105.967 L 61.605,-83.8333
 L 61.7,-83.7383 L 67.305,-83.7383 L 67.305,-67.4 L 67.4,-67.305 L 83.7383,-67.305 L 83.7383,-61.7
 L 83.8333,-61.605 L 105.967,-61.605 z
M 106.062,5.7 L 106.062,0.0950012 L 122.4,0.0950012 L 122.495,-0 L 122.495,-16.3383 L 128.1,-16.3383
 L 128.195,-16.4333 L 128.195,-38.5667 L 128.1,-38.6617 L 122.495,-38.6617 L 122.495,-55 L 122.4,-55.095
 L 106.062,-55.095 L 106.062,-60.7 L 105.967,-60.795 L 83.8333,-60.795 L 83.7383,-60.7 L 83.7383,-55.095
 L 67.4,-55.095 L 67.305,-55 L 67.305,-38.6617 L 61.7,-38.6617 L 61.605,-38.5667 L 61.605,-16.4333
 L 61.7,-16.3383 L 67.305,-16.3383 L 67.305,-0 L 67.4,0.0950012 L 83.7383,0.0950012 L 83.7383,5.7
 L 83.8333,5.795 L 105.967,5.795 z
M 72.1411,-48.6985 L 71.8922,-48.774 L 71.6627,-48.8966 L 71.4616,-49.0616 L 71.2966,-49.2627 L 71.174,-49.4922
 L 71.0984,-49.7411 L 71.073,-50 L 71.0984,-50.2589 L 71.174,-50.5078 L 71.2966,-50.7373 L 71.4616,-50.9384
 L 71.6627,-51.1034 L 71.8922,-51.226 L 72.1411,-51.3015 L 72.4,-51.327 L 72.6589,-51.3015 L 72.9078,-51.226
 L 73.1373,-51.1034 L 73.3383,-50.9384 L 73.5034,-50.7373 L 73.626,-50.5078 L 73.7015,-50.2589 L 73.727,-50
 L 73.7015,-49.7411 L 73.626,-49.4922 L 73.5034,-49.2627 L 73.3383,-49.0616 L 73.1373,-48.8966 L 72.9078,-48.774
 L 72.6589,-48.6985 L 72.4,-48.673 z
M 117.141,-48.6985 L 116.892,-48.774 L 116.663,-48.8966 L 116.462,-49.0616 L 116.297,-49.2627 L 116.174,-49.4922
 L 116.098,-49.7411 L 116.073,-50 L 116.098,-50.2589 L 116.174,-50.5078 L 116.297,-50.7373 L 116.462,-50.9384
 L 116.663,-51.1034 L 116.892,-51.226 L 117.141,-51.3015 L 117.4,-51.327 L 117.659,-51.3015 L 117.908,-51.226
 L 118.137,-51.1034 L 118.338,-50.9384 L 118.503,-50.7373 L 118.626,-50.5078 L 118.702,-50.2589 L 118.727,-50
 L 118.702,-49.7411 L 118.626,-49.4922 L 118.503,-49.2627 L 118.338,-49.0616 L 118.137,-48.8966 L 117.908,-48.774
 L 117.659,-48.6985 L 117.4,-48.673 z
M 99.495,-32.095 L 99.495,-47.905 L 115.305,-47.905 L 115.305,-32.095 z
M 74.495,-32.095 L 74.495,-47.905 L 90.305,-47.905 L 90.305,-32.095 z
M 99.495,-7.095 L 99.495,-22.905 L 115.305,-22.905 L 115.305,-7.095 z
M 74.495,-7.095 L 74.495,-22.905 L 90.305,-22.905 L 90.305,-7.095 z
M 72.1411,-3.69846 L 71.8922,-3.77397 L 71.6627,-3.89661 L 71.4616,-4.06163 L 71.2966,-4.26273 L 71.174,-4.49217
 L 71.0984,-4.7411 L 71.073,-5 L 71.0984,-5.25888 L 71.174,-5.50781 L 71.2966,-5.73726 L 71.4616,-5.93835
 L 71.6627,-6.10338 L 71.8922,-6.22601 L 72.1411,-6.30153 L 72.4,-6.32703 L 72.6589,-6.30153 L 72.9078,-6.22601
 L 73.1373,-6.10338 L 73.3383,-5.93835 L 73.5034,-5.73726 L 73.626,-5.50781 L 73.7015,-5.25888 L 73.727,-5
 L 73.7015,-4.7411 L 73.626,-4.49217 L 73.5034,-4.26273 L 73.3383,-4.06163 L 73.1373,-3.89661 L 72.9078,-3.77397
 L 72.6589,-3.69846 L 72.4,-3.67296 z
M 117.141,-3.69846 L 116.892,-3.77397 L 116.663,-3.89661 L 116.462,-4.06163 L 116.297,-4.26273 L 116.174,-4.49217
 L 116.098,-4.7411 L 116.073,-5 L 116.098,-5.25888 L 116.174,-5.50781 L 116.297,-5.73726 L 116.462,-5.93835
 L 116.663,-6.10338 L 116.892,-6.22601 L 117.141,-6.30153 L 117.4,-6.32703 L 117.659,-6.30153 L 117.908,-6.22601
 L 118.137,-6.10338 L 118.338,-5.93835 L 118.503,-5.73726 L 118.626,-5.50781 L 118.702,-5.25888 L 118.727,-5
 L 118.702,-4.7411 L 118.626,-4.49217 L 118.503,-4.26273 L 118.338,-4.06163 L 118.137,-3.89661 L 117.908,-3.77397
 L 117.659,-3.69846 L 117.4,-3.67296 z
M 38.6617,5.7 L 38.6617,0.0950012 L 55,0.0950012 L 55.095,-0 L 55.095,-16.3383 L 60.7,-16.3383
 L 60.795,-16.4333 L 60.795,-38.5667 L 60.7,-38.6617 L 55.095,-38.6617 L 55.095,-55 L 55,-55.095
 L 38.6617,-55.095 L 38.6617,-60.7 L 38.5667,-60.795 L 16.4333,-60.795 L 16.3383,-60.7 L 16.3383,-55.095
 L 0,-55.095 L -0.0950012,-55 L -0.0950012,-38.6617 L -5.7,-38.6617 L -5.795,-38.5667 L -5.795,-16.4333
 L -5.7,-16.3383 L -0.0950012,-16.3383 L -0.0950012,-0 L 0,0.0950012 L 16.3383,0.0950012 L 16.3383,5.7
 L 16.4333,5.795 L 38.5667,5.795 z
M 4.7411,-48.6985 L 4.49217,-48.774 L 4.26273,-48.8966 L 4.06163,-49.0616 L 3.89661,-49.2627 L 3.77397,-49.4922
 L 3.69846,-49.7411 L 3.67296,-50 L 3.69846,-50.2589 L 3.77397,-50.5078 L 3.89661,-50.7373 L 4.06163,-50.9384
 L 4.26273,-51.1034 L 4.49217,-51.226 L 4.7411,-51.3015 L 5,-51.327 L 5.25888,-51.3015 L 5.50781,-51.226
 L 5.73726,-51.1034 L 5.93835,-50.9384 L 6.10338,-50.7373 L 6.22601,-50.5078 L 6.30153,-50.2589 L 6.32703,-50
 L 6.30153,-49.7411 L 6.22601,-49.4922 L 6.10338,-49.2627 L 5.93835,-49.0616 L 5.73726,-48.8966 L 5.50781,-48.774
 L 5.25888,-48.6985 L 5,-48.673 z
M 49.7411,-48.6985 L 49.4922,-48.774 L 49.2627,-48.8966 L 49.0616,-49.0616 L 48.8966,-49.2627 L 48.774,-49.4922
 L 48.6985,-49.7411 L 48.673,-50 L 48.6985,-50.2589 L 48.774,-50.5078 L 48.8966,-50.7373 L 49.0616,-50.9384
 L 49.2627,-51.1034 L 49.4922,-51.226 L 49.7411,-51.3015 L 50,-51.327 L 50.2589,-51.3015 L 50.5078,-51.226
 L 50.7373,-51.1034 L 50.9384,-50.9384 L 51.1034,-50.7373 L 51.226,-50.5078 L 51.3015,-50.2589 L 51.327,-50
 L 51.3015,-49.7411 L 51.226,-49.4922 L 51.1034,-49.2627 L 50.9384,-49.0616 L 50.7373,-48.8966 L 50.5078,-48.774
 L 50.2589,-48.6985 L 50,-48.673 z
M 32.095,-32.095 L 32.095,-47.905 L 47.905,-47.905 L 47.905,-32.095 z
M 7.095,-32.095 L 7.095,-47.905 L 22.905,-47.905 L 22.905,-32.095 z
M 32.095,-7.095 L 32.095,-22.905 L 47.905,-22.905 L 47.905,-7.095 z
M 7.095,-7.095 L 7.095,-22.905 L 22.905,-22.905 L 22.905,-7.095 z
M 4.7411,-3.69846 L 4.49217,-3.77397 L 4.26273,-3.89661 L 4.06163,-4.06163 L 3.89661,-4.26273 L 3.77397,-4.49217
 L 3.69846,-4.7411 L 3.67296,-5 L 3.69846,-5.25888 L 3.77397,-5.50781 L 3.89661,-5.73726 L 4.06163,-5.93835
 L 4.26273,-6.10338 L 4.49217,-6.22601 L 4.7411,-6.30153 L 5,-6.32703 L 5.25888,-6.30153 L 5.50781,-6.22601
 L 5.73726,-6.10338 L 5.93835,-5.93835 L 6.10338,-5.73726 L 6.22601,-5.50781 L 6.30153,-5.25888 L 6.32703,-5
 L 6.30153,-4.7411 L 6.22601,-4.49217 L 6.10338,-4.26273 L 5.93835,-4.06163 L 5.73726,-3.89661 L 5.50781,-3.77397
 L 5.25888,-3.69846 L 5,-3.67296 z
M 49.7411,-3.69846 L 49.4922,-3.77397 L 49.2627,-3.89661 L 49.0616,-4.06163 L 48.8966,-4.26273 L 48.774,-4.49217
 L 48.6985,-4.7411 L 48.673,-5 L 48.6985,-5.25888 L 48.774,-5.50781 L 48.8966,-5.73726 L 49.0616,-5.93835
 L 49.2627,-6.10338 L 49.4922,-6.22601 L 49.7411,-6.30153 L 50,-6.32703 L 50.2589,-6.30153 L 50.5078,-6.22601
 L 50.7373,-6.10338 L 50.9384,-5.93835 L 51.1034,-5.73726 L 51.226,-5.50781 L 51.3015,-5.25888 L 51.327,-5
 L 51.3015,-4.7411 L 51.226,-4.49217 L 51.1034,-4.26273 L 50.9384,-4.06163 L 50.7373,-3.89661 L 50.5078,-3.77397
 L 50.2589,-3.69846 L 50,-3.67296 z
M 146.295,5.69998 L 146.295,0.0950012 L 163.3,0.0950012 L 163.395,-0 L 163.395,-16.4333 L 163.3,-16.5283
 L 157.695,-16.5283 L 157.695,-38.4717 L 163.3,-38.4717 L 163.395,-38.5667 L 163.395,-55 L 163.3,-55.095
 L 146.295,-55.095 L 146.295,-60.7 L 146.2,-60.795 L 129.1,-60.795 L 129.005,-60.7 L 129.005,-38.5667
 L 129.1,-38.4717 L 134.705,-38.4717 L 134.705,-16.5283 L 129.1,-16.5283 L 129.005,-16.4333 L 129.005,5.69998
 L 129.1,5.79498 L 146.2,5.79498 z
" stroke="#00f" fill="none" stroke-width="0.1"/>
</svg>